<svg width="61" height="60" viewBox="0 0 61 60" fill="none" xmlns="http://www.w3.org/2000/svg">
<rect x="0.5" width="60" height="60" rx="30" fill="#246BFD" fill-opacity="0.08"/>
<path d="M22.1642 21.1182C23.3308 20.144 24.8347 19.5 26.125 19.5C27.1388 19.5 27.9345 19.661 28.5832 19.9317C29.2365 20.2058 29.6938 20.571 30.0473 20.9152C30.2013 21.0668 30.339 21.2162 30.4522 21.3398L30.4872 21.3783C30.6155 21.5183 30.7053 21.614 30.7905 21.6898C30.9352 21.8182 31.0005 21.8333 31.0833 21.8333C31.1662 21.8333 31.2315 21.8182 31.375 21.6898C31.4613 21.614 31.5523 21.5183 31.6795 21.3783L31.7145 21.3398C31.8288 21.2162 31.9653 21.0657 32.1193 20.9152C32.5391 20.4959 33.0364 20.1623 33.5835 19.9328C34.2322 19.661 35.0267 19.5 36.0417 19.5C37.332 19.5 38.8358 20.144 40.0025 21.1182C41.1762 22.0982 42.1667 23.546 42.1667 25.2727C42.1667 26.1803 42.1643 27.963 40.5648 29.867C40.1332 30.5495 39.8368 31.3545 39.8333 32.0463C39.8217 34.2933 39.3235 36.1915 38.5698 37.5588C37.8512 38.8655 36.7545 39.9167 35.4583 39.9167C35.0407 39.9167 34.6522 39.8 34.3197 39.555C34.0256 39.3282 33.793 39.0314 33.643 38.6917C33.3642 38.0943 33.2428 37.322 33.1553 36.5882C33.1195 36.2781 33.086 35.9678 33.055 35.6572C32.9208 34.3633 32.782 33.0205 32.3235 31.8118C32.1065 31.3953 31.7332 31.1667 31.375 31.1667H30.7917C30.4253 31.1667 30.0415 31.4058 29.828 31.8433C29.1933 33.1383 29.1152 34.6002 29.0393 36.0025L29.009 36.5485C28.9658 37.266 28.8982 38.0605 28.624 38.6788C28.4724 39.0401 28.2216 39.3512 27.9007 39.576C27.547 39.808 27.1311 39.9268 26.7083 39.9167C25.2617 39.9167 24.1545 38.9005 23.4533 37.5367C22.7452 36.16 22.345 34.263 22.3333 32.0463C22.3298 31.4257 22.0918 30.7105 21.722 30.0665C21.632 29.9234 21.5297 29.7883 21.4163 29.6628C20 27.9817 20 26.1267 20 25.2937V25.2727C20 23.546 20.9905 22.0982 22.1642 21.1182ZM35.4583 23C35.2263 23 35.0037 23.0922 34.8396 23.2563C34.6755 23.4204 34.5833 23.6429 34.5833 23.875C34.5833 24.1071 34.6755 24.3296 34.8396 24.4937C35.0037 24.6578 35.2263 24.75 35.4583 24.75C36.2913 24.75 36.9167 25.3753 36.9167 26.2083C36.9167 26.4404 37.0089 26.663 37.1729 26.8271C37.337 26.9911 37.5596 27.0833 37.7917 27.0833C38.0237 27.0833 38.2463 26.9911 38.4104 26.8271C38.5745 26.663 38.6667 26.4404 38.6667 26.2083C38.6714 25.7857 38.5916 25.3664 38.432 24.975C38.2724 24.5837 38.0363 24.2281 37.7374 23.9293C37.4386 23.6304 37.083 23.3942 36.6916 23.2347C36.3003 23.0751 35.881 22.9953 35.4583 23Z" fill="url(#paint0_linear_1601_5473)"/>
<defs>
<linearGradient id="paint0_linear_1601_5473" x1="42.1667" y1="39.9173" x2="16.1509" y2="31.7279" gradientUnits="userSpaceOnUse">
<stop stop-color="#246BFD"/>
<stop offset="1" stop-color="#5089FF"/>
</linearGradient>
</defs>
</svg>
