<svg width="61" height="60" viewBox="0 0 61 60" fill="none" xmlns="http://www.w3.org/2000/svg">
<rect x="0.5" width="60" height="60" rx="30" fill="#246BFD" fill-opacity="0.08"/>
<path fill-rule="evenodd" clip-rule="evenodd" d="M33.0808 25.0561C33.0808 28.1405 30.5568 30.6123 27.4072 30.6123C24.2588 30.6123 21.7337 28.1405 21.7337 25.0561C21.7337 21.9718 24.2588 19.5 27.4072 19.5C30.5568 19.5 33.0808 21.9718 33.0808 25.0561ZM18.833 36.9036C18.833 34.0484 22.7828 33.334 27.4072 33.334C32.0568 33.334 35.9815 34.073 35.9815 36.9304C35.9815 39.7856 32.0317 40.5 27.4072 40.5C22.7577 40.5 18.833 39.761 18.833 36.9036ZM35.3687 25.1569C35.3687 26.7276 34.8869 28.1932 34.0422 29.4106C33.9543 29.5358 34.0319 29.7046 34.1849 29.7315C34.3972 29.7661 34.6152 29.7874 34.8378 29.7918C37.0525 29.8489 39.0399 28.4526 39.589 26.3497C40.4029 23.2295 38.0148 20.428 34.9725 20.428C34.6426 20.428 34.3264 20.4615 34.0182 20.523C33.976 20.532 33.9303 20.5521 33.9075 20.5879C33.8778 20.6337 33.8995 20.693 33.9292 20.7321C34.8435 21.9875 35.3687 23.5157 35.3687 25.1569ZM39.0365 31.986C40.5251 32.2711 41.5034 32.8513 41.9086 33.6976C42.2522 34.3907 42.2522 35.1956 41.9086 35.8887C41.2888 37.199 39.2888 37.6204 38.5114 37.7289C38.3504 37.7512 38.2214 37.6171 38.2385 37.4583C38.6358 33.8273 35.4771 32.1056 34.6598 31.7099C34.6255 31.6909 34.6175 31.664 34.6209 31.6462C34.6232 31.635 34.6381 31.6171 34.6643 31.6137C36.4326 31.5802 38.3344 31.8183 39.0365 31.986Z" fill="url(#paint0_linear_1601_5360)"/>
<defs>
<linearGradient id="paint0_linear_1601_5360" x1="42.1663" y1="40.5" x2="14.8978" y2="31.7153" gradientUnits="userSpaceOnUse">
<stop stop-color="#246BFD"/>
<stop offset="1" stop-color="#5089FF"/>
</linearGradient>
</defs>
</svg>
