<svg width="61" height="60" viewBox="0 0 61 60" fill="none" xmlns="http://www.w3.org/2000/svg">
<rect x="0.5" width="60" height="60" rx="30" fill="#246BFD" fill-opacity="0.08"/>
<path fill-rule="evenodd" clip-rule="evenodd" d="M18.833 29.9999C18.833 23.5599 24.048 18.3333 30.4997 18.3333C36.9397 18.3333 42.1663 23.5599 42.1663 29.9999C42.1663 36.4399 36.9397 41.6666 30.4997 41.6666C24.048 41.6666 18.833 36.4399 18.833 29.9999ZM25.273 31.3999C24.503 31.3999 23.873 30.7699 23.873 29.9999C23.873 29.2299 24.503 28.6011 25.273 28.6011C26.043 28.6011 26.6613 29.2299 26.6613 29.9999C26.6613 30.7699 26.043 31.3999 25.273 31.3999ZM29.0997 29.9999C29.0997 30.7699 29.7297 31.3999 30.4997 31.3999C31.2697 31.3999 31.888 30.7699 31.888 29.9999C31.888 29.2299 31.2697 28.6011 30.4997 28.6011C29.7297 28.6011 29.0997 29.2299 29.0997 29.9999ZM34.3263 29.9999C34.3263 30.7699 34.9447 31.3999 35.7263 31.3999C36.4963 31.3999 37.1147 30.7699 37.1147 29.9999C37.1147 29.2299 36.4963 28.6011 35.7263 28.6011C34.9447 28.6011 34.3263 29.2299 34.3263 29.9999Z" fill="#246BFD"/>
</svg>
