<svg width="61" height="60" viewBox="0 0 61 60" fill="none" xmlns="http://www.w3.org/2000/svg">
<rect x="0.5" width="60" height="60" rx="30" fill="#246BFD" fill-opacity="0.08"/>
<path fill-rule="evenodd" clip-rule="evenodd" d="M34.1195 29.2866C34.8623 29.2892 35.5914 29.0862 36.226 28.7C36.8698 29.0853 37.6082 29.284 38.3585 29.2737L40.7696 28.4823C41.4483 27.9767 41.915 27.2754 42.09 26.4969C42.2648 25.7148 42.137 24.8954 41.7322 24.2037C41.3258 23.4991 40.6627 22.9417 39.8557 22.6254C39.671 21.8716 39.2069 21.1969 38.5393 20.714L36.1865 19.9712H35.9207C35.3976 19.2815 34.6121 18.7896 33.7131 18.5893L28.6684 18.3333C27.8296 18.3961 27.0389 18.7118 26.4238 19.2297C26.1318 19.1675 25.8343 19.1354 25.5358 19.1337C24.8199 19.133 24.1167 19.3222 23.4979 19.6821C22.8919 20.0386 22.4123 20.5461 22.1186 21.1431L20.2014 22.3681C19.7305 22.9343 19.4716 23.6468 19.4689 24.3832C19.4644 24.6866 19.5091 24.9886 19.6012 25.2803C19.0988 25.8695 18.8279 26.5928 18.8331 27.3369C18.8318 28.199 19.1967 29.0293 19.8533 29.6567C19.9058 30.2738 20.145 30.8669 20.5442 31.3705C20.9579 31.8848 21.5011 32.2797 22.118 32.5145C22.8308 32.9133 23.4457 33.466 23.918 34.1323C24.3713 34.7735 24.6626 35.515 24.7671 36.2933H26.5301V31.2739L24.817 29.752L23.6587 30.9109C23.5371 31.0325 23.3721 31.1007 23.2002 31.1007C23.0283 31.1006 22.8634 31.0322 22.7419 30.9106C22.6203 30.789 22.5521 30.6241 22.5521 30.4521C22.5522 30.2802 22.6206 30.1153 22.7422 29.9938L24.093 28.6436L23.6814 26.3796L21.8497 25.4637C21.6959 25.3868 21.579 25.2519 21.5246 25.0888C21.4703 24.9257 21.483 24.7477 21.5599 24.5939C21.6368 24.4401 21.7717 24.3232 21.9348 24.2689C22.098 24.2145 22.276 24.2272 22.4298 24.3042L24.2232 25.2012L26.4665 23.7733L25.7756 21.9299C25.7189 21.7699 25.7273 21.594 25.7989 21.44C25.8705 21.2861 25.9997 21.1664 26.1587 21.1067C26.3176 21.047 26.4937 21.0521 26.6489 21.1208C26.8042 21.1895 26.9263 21.3165 26.989 21.4743L27.7266 23.4408H28.6334L29.0547 22.5995L28.4383 21.1619C28.3734 21.0044 28.3731 20.8277 28.4375 20.67C28.5018 20.5124 28.6256 20.3863 28.7822 20.3192C28.9387 20.2521 29.1153 20.2493 29.2739 20.3114C29.4325 20.3735 29.5603 20.4955 29.6296 20.6511L30.165 21.9001L32.3039 22.289C32.3158 22.2777 32.3281 22.2669 32.3409 22.2566L33.667 21.1962C33.8015 21.0916 33.9717 21.0441 34.1408 21.064C34.31 21.0839 34.4645 21.1696 34.571 21.3026C34.6775 21.4356 34.7273 21.6051 34.7098 21.7745C34.6922 21.944 34.6087 22.0997 34.4772 22.208L33.5231 22.9715L34.6438 24.4124L35.0833 23.5335C35.1371 23.4258 35.2198 23.3353 35.3221 23.272C35.4245 23.2087 35.5424 23.1751 35.6627 23.1751H37.254C37.4259 23.1751 37.5908 23.2433 37.7123 23.3649C37.8339 23.4865 37.9022 23.6513 37.9022 23.8232C37.9022 23.9951 37.8339 24.16 37.7123 24.2816C37.5908 24.4031 37.4259 24.4714 37.254 24.4714H36.0633L35.7917 25.0152L37.1295 25.3121C37.1814 25.3237 37.2313 25.3419 37.2786 25.3652L38.339 25.8954C38.4152 25.9335 38.4831 25.9861 38.539 26.0505C38.5948 26.1148 38.6374 26.1894 38.6644 26.2702C38.6913 26.351 38.7021 26.4363 38.6961 26.5212C38.6901 26.6061 38.6674 26.6891 38.6294 26.7653C38.5914 26.8414 38.5387 26.9094 38.4744 26.9652C38.4101 27.021 38.3354 27.0636 38.2546 27.0906C38.0915 27.1451 37.9134 27.1325 37.7596 27.0556L36.7705 26.5604L34.4617 26.0477C34.3145 26.0148 34.1834 25.9316 34.0909 25.8125L32.3863 23.6216L30.2713 23.2373C30.2307 23.2751 30.1854 23.3076 30.1365 23.3339L29.6821 24.2419V24.7663H30.6245C30.7253 24.7661 30.8247 24.7894 30.9149 24.8344L33.0364 25.8954C33.1125 25.9335 33.1804 25.9862 33.2362 26.0505C33.2919 26.1149 33.3345 26.1896 33.3614 26.2703C33.3883 26.3511 33.399 26.4364 33.393 26.5213C33.3869 26.6062 33.3642 26.6891 33.3261 26.7653C33.288 26.8414 33.2353 26.9093 33.171 26.9651C33.1066 27.0208 33.032 27.0634 32.9512 27.0903C32.8704 27.1172 32.7851 27.1279 32.7002 27.1219C32.6153 27.1158 32.5324 27.0931 32.4563 27.055L30.4716 26.0626H29.6821V27.2708C29.6821 27.4427 29.6138 27.6076 29.4923 27.7292C29.3707 27.8507 29.2058 27.919 29.0339 27.919C28.862 27.919 28.6972 27.8507 28.5756 27.7292C28.4541 27.6076 28.3858 27.4427 28.3858 27.2708V24.7371H27.3668L24.9764 26.2577L25.3893 28.5263L27.6086 30.4987C27.6769 30.5595 27.7316 30.6341 27.769 30.7176C27.8064 30.801 27.8258 30.8914 27.8258 30.9829V36.2933H29.7171V32.7057C29.7186 32.0613 29.9167 31.4327 30.2849 30.9038C30.6718 30.3504 31.2041 29.9146 31.823 29.6444C32.1795 29.5213 32.2663 29.356 32.3739 29.1531C32.4452 29.0183 32.5256 28.8666 32.7 28.6994C32.851 28.7934 32.9683 28.8757 33.0701 28.9476C33.3857 29.17 33.5517 29.2873 34.1201 29.2873L34.1195 29.2866ZM29.8519 39.0934H24.6666V37.7971H29.8519V39.0934ZM29.8519 41.6861H24.6666V40.3897H29.8519V41.6861Z" fill="url(#paint0_linear_1601_5337)"/>
<defs>
<linearGradient id="paint0_linear_1601_5337" x1="42.1663" y1="41.6861" x2="14.3982" y2="33.6417" gradientUnits="userSpaceOnUse">
<stop stop-color="#246BFD"/>
<stop offset="1" stop-color="#5089FF"/>
</linearGradient>
</defs>
</svg>
