<svg width="61" height="60" viewBox="0 0 61 60" fill="none" xmlns="http://www.w3.org/2000/svg">
<rect x="0.5" width="60" height="60" rx="30" fill="#246BFD" fill-opacity="0.08"/>
<path fill-rule="evenodd" clip-rule="evenodd" d="M21.1894 26.0236C20.5349 25.4246 20.088 24.4527 20.0005 22.883C19.9972 22.8067 20.0095 22.7306 20.0368 22.6593C20.0641 22.588 20.1058 22.5231 20.1592 22.4686C20.2127 22.4141 20.2768 22.3712 20.3475 22.3425C20.4183 22.3139 20.4942 22.3001 20.5705 22.302C21.5475 22.3195 22.296 22.386 22.8676 22.5546C23.1126 21.9193 23.6009 21.3202 24.333 20.7725C24.425 20.7038 24.5367 20.6667 24.6515 20.6667C24.7663 20.6667 24.878 20.7038 24.97 20.7725C25.7085 21.3243 26.1985 21.9292 26.4417 22.5703C27.0303 22.372 27.7845 22.3148 28.7342 22.3008C28.8105 22.2991 28.8863 22.3131 28.9569 22.342C29.0275 22.3708 29.0915 22.4139 29.1447 22.4685C29.198 22.5231 29.2395 22.5881 29.2666 22.6594C29.2937 22.7307 29.3059 22.8068 29.3024 22.883C29.2149 24.4527 28.768 25.4246 28.1135 26.0231C28.4332 26.2616 28.6187 26.6606 28.551 27.0929C28.3078 28.6148 28.0142 30.1282 27.6708 31.6306H24.0681V32.7973H27.396C26.9073 34.8064 26.3315 36.7934 25.6705 38.7526C25.6034 38.9704 25.4683 39.1611 25.2848 39.2965C25.1014 39.4319 24.8795 39.505 24.6515 39.505C24.4235 39.505 24.2015 39.4319 24.0181 39.2965C23.8347 39.1611 23.6995 38.9704 23.6324 38.7526C23.3571 37.9392 23.0972 37.1206 22.853 36.2973H24.0681V35.1306H22.517C21.9652 33.1526 21.5545 31.3565 21.2565 29.8806H23.4848V28.714H21.0307C20.914 28.0811 20.8225 27.5356 20.7525 27.0923C20.7202 26.8912 20.7439 26.6852 20.821 26.4967C20.898 26.3082 21.0255 26.1445 21.1894 26.0236ZM25.3509 22.9839L25.7487 24.0339L26.8133 23.6757C27.1067 23.5771 27.504 23.5182 28.0698 23.4891C27.8965 24.6161 27.4795 25.0921 27.0985 25.3382C26.5555 25.6894 25.7639 25.7961 24.669 25.7973H24.634C23.539 25.7961 22.7475 25.6894 22.2044 25.3376C21.824 25.0921 21.4075 24.6166 21.2337 23.492C21.8176 23.5241 22.233 23.5836 22.5375 23.6734L23.5688 23.9779L23.9561 22.9746C24.067 22.6858 24.2822 22.3621 24.6515 22.0214C25.0248 22.3656 25.2406 22.6928 25.3509 22.9839ZM36.7305 23.8764C35.5796 25.0273 35.4676 26.6338 36.1145 28.1464C38.946 26.2931 42.1515 28.5856 42.1515 32.214C42.1515 35.4357 39.2785 38.0473 35.7348 38.0473C32.191 38.0473 29.3181 35.4357 29.3181 32.214C29.3181 28.8353 32.0977 26.614 34.7665 27.8215C34.3109 26.1881 34.5465 24.4101 35.9057 23.0516L36.7305 23.8764ZM40.384 33.5218C40.404 33.447 40.409 33.369 40.3986 33.2922C40.3882 33.2155 40.3626 33.1416 40.3233 33.0748C40.284 33.0081 40.2319 32.9498 40.1698 32.9035C40.1078 32.8571 40.0372 32.8235 39.962 32.8047C39.8869 32.786 39.8088 32.7823 39.7322 32.794C39.6557 32.8058 39.5822 32.8326 39.5162 32.873C39.4501 32.9135 39.3927 32.9666 39.3474 33.0294C39.3021 33.0922 39.2698 33.1635 39.2523 33.2389C39.1413 33.7023 38.9041 34.126 38.5671 34.463C38.2302 34.8 37.8065 35.0371 37.343 35.1481C37.1939 35.1866 37.0661 35.2825 36.9874 35.4149C36.9087 35.5472 36.8856 35.7053 36.923 35.8547C36.9604 36.0041 37.0554 36.1326 37.1872 36.2122C37.319 36.2919 37.4769 36.3162 37.6265 36.2798C38.2949 36.1174 38.9057 35.7742 39.392 35.2879C39.8784 34.8015 40.2216 34.1908 40.384 33.5224V33.5218Z" fill="url(#paint0_linear_1601_5478)"/>
<path d="M36.9014 26.3805C38.6514 26.3805 39.818 25.2139 39.818 23.4639C38.068 23.4639 36.9014 24.6305 36.9014 26.3805Z" fill="#212121"/>
<defs>
<linearGradient id="paint0_linear_1601_5478" x1="42.1515" y1="39.505" x2="16.5529" y2="30.7775" gradientUnits="userSpaceOnUse">
<stop stop-color="#246BFD"/>
<stop offset="1" stop-color="#5089FF"/>
</linearGradient>
</defs>
</svg>
