<svg width="61" height="60" viewBox="0 0 61 60" fill="none" xmlns="http://www.w3.org/2000/svg">
<rect x="0.5" width="60" height="60" rx="30" fill="#246BFD" fill-opacity="0.08"/>
<path fill-rule="evenodd" clip-rule="evenodd" d="M25.9468 30.0001C25.9468 32.489 27.9842 34.514 30.4997 34.514C33.0037 34.514 35.0411 32.489 35.0411 30.0001C35.0411 27.4999 33.0037 25.4748 30.4997 25.4748C27.9842 25.4748 25.9468 27.4999 25.9468 30.0001ZM37.1924 23.0538C39.1842 24.5924 40.8802 26.8437 42.098 29.6607C42.1891 29.8756 42.1891 30.1245 42.098 30.3282C39.6623 35.9621 35.3257 39.3334 30.4997 39.3334H30.4883C25.6737 39.3334 21.3371 35.9621 18.9013 30.3282C18.8102 30.1245 18.8102 29.8756 18.9013 29.6607C21.3371 24.0267 25.6737 20.6667 30.4883 20.6667H30.4997C32.9127 20.6667 35.2005 21.5039 37.1924 23.0538ZM30.501 32.8146C32.0604 32.8146 33.3352 31.5475 33.3352 29.9976C33.3352 28.4364 32.0604 27.1693 30.501 27.1693C30.3645 27.1693 30.2279 27.1806 30.1027 27.2032C30.0571 28.4477 29.0327 29.4432 27.7693 29.4432H27.7124C27.6783 29.6243 27.6555 29.8053 27.6555 29.9976C27.6555 31.5475 28.9303 32.8146 30.501 32.8146Z" fill="url(#paint0_linear_1601_6462)"/>
<defs>
<linearGradient id="paint0_linear_1601_6462" x1="42.1663" y1="39.3334" x2="15.5622" y2="29.6914" gradientUnits="userSpaceOnUse">
<stop stop-color="#246BFD"/>
<stop offset="1" stop-color="#5089FF"/>
</linearGradient>
</defs>
</svg>
