<svg width="61" height="60" viewBox="0 0 61 60" fill="none" xmlns="http://www.w3.org/2000/svg">
<rect x="0.5" width="60" height="60" rx="30" fill="#246BFD" fill-opacity="0.08"/>
<path d="M26.0795 22.1626C26.0878 22.5173 26.025 22.87 25.8949 23.2001C25.7649 23.5302 25.5701 23.831 25.3222 24.0847C25.0742 24.3385 24.778 24.5401 24.4511 24.6778C24.1241 24.8155 23.7729 24.8864 23.4181 24.8864C23.0633 24.8864 22.7121 24.8155 22.3851 24.6778C22.0581 24.5401 21.7619 24.3385 21.5139 24.0847C21.266 23.831 21.0713 23.5302 20.9412 23.2001C20.8111 22.87 20.7484 22.5173 20.7566 22.1626C20.768 21.4642 21.0535 20.7982 21.5514 20.3083C22.0494 19.8185 22.7199 19.5439 23.4184 19.5439C24.1169 19.5439 24.7875 19.8185 25.2854 20.3083C25.7834 20.7982 26.0688 21.4642 26.0803 22.1626H26.0795Z" fill="url(#paint0_linear_1601_10287)"/>
<path fill-rule="evenodd" clip-rule="evenodd" d="M20.3021 30.9042C20.1017 31.2249 19.7821 31.4528 19.4136 31.5378C19.0451 31.6229 18.6579 31.558 18.3372 31.3576C18.0165 31.1572 17.7886 30.8376 17.7035 30.4691C17.6185 30.1006 17.6833 29.7134 17.8837 29.3927L17.8866 29.3884L17.8916 29.3806L17.9087 29.3535C17.9991 29.2109 18.0921 29.07 18.1875 28.9307C18.4187 28.5896 18.6617 28.2567 18.9161 27.9325C19.2006 27.5732 19.5499 27.1675 19.9192 26.8381C20.1039 26.6734 20.3263 26.4981 20.578 26.3569C20.8147 26.2243 21.1848 26.0603 21.6375 26.0603H25.1994C25.6522 26.0603 26.0222 26.2243 26.2596 26.3569C26.5106 26.4981 26.7337 26.6734 26.9177 26.8381C27.287 27.1675 27.6371 27.5732 27.9208 27.9333C28.2799 28.3897 28.6161 28.8637 28.9282 29.3535L28.9461 29.3806L28.9511 29.3877L28.9532 29.392C28.9282 29.3535 28.9532 29.392 28.9532 29.392C29.1481 29.7124 29.2089 30.0968 29.1225 30.4618C29.036 30.8268 28.8091 31.143 28.4911 31.3419C28.1731 31.5409 27.7895 31.6065 27.4235 31.5245C27.0574 31.4426 26.7384 31.2197 26.5355 30.9042L26.5334 30.9013L26.522 30.8835C26.4864 30.8273 26.4502 30.7715 26.4136 30.7159V32.4869L26.9291 37.9019C26.9615 38.271 26.849 38.6382 26.6153 38.9258C26.3817 39.2134 26.0453 39.3987 25.6773 39.4425C25.3094 39.4864 24.9389 39.3853 24.6442 39.1606C24.3495 38.936 24.1538 38.6055 24.0986 38.2391L23.3707 33.1486L22.6435 38.2391C22.5914 38.6083 22.3968 38.9424 22.1013 39.1699C21.8059 39.3973 21.4331 39.5 21.0629 39.4559C20.6926 39.4118 20.3544 39.2244 20.1206 38.934C19.8869 38.6435 19.7762 38.273 19.8123 37.9019L20.4112 31.6207H20.424V30.7152C20.3872 30.771 20.3509 30.8271 20.3149 30.8835L20.3042 30.9013L20.3021 30.9042Z" fill="url(#paint1_linear_1601_10287)"/>
<path d="M40.3393 22.1618C40.3393 22.8678 40.0589 23.5449 39.5597 24.0441C39.0605 24.5432 38.3834 24.8237 37.6775 24.8237C36.9715 24.8237 36.2945 24.5432 35.7953 24.0441C35.2961 23.5449 35.0156 22.8678 35.0156 22.1618C35.0156 21.4559 35.2961 20.7788 35.7953 20.2796C36.2945 19.7804 36.9715 19.5 37.6775 19.5C38.3834 19.5 39.0605 19.7804 39.5597 20.2796C40.0589 20.7788 40.3393 21.4559 40.3393 22.1618Z" fill="url(#paint2_linear_1601_10287)"/>
<path fill-rule="evenodd" clip-rule="evenodd" d="M34.5646 30.7544C34.3629 31.0698 34.0452 31.2932 33.6802 31.3764C33.3152 31.4596 32.9321 31.3958 32.6137 31.199C32.2952 31.0021 32.067 30.6879 31.9782 30.3242C31.8894 29.9605 31.9472 29.5765 32.1391 29.2551L32.1413 29.2508L32.147 29.243L32.1634 29.2159L32.224 29.1203C32.5164 28.6652 32.8287 28.2232 33.1601 27.7956C33.441 27.4363 33.7875 27.0299 34.1525 26.6998C34.3358 26.5351 34.5568 26.3583 34.807 26.2171C35.0423 26.0831 35.4131 25.917 35.8679 25.917H39.3914C39.8463 25.917 40.217 26.0831 40.453 26.2164C40.7025 26.359 40.9235 26.5351 41.1068 26.6998C41.4725 27.0299 41.8183 27.4363 42.0992 27.7956C42.4545 28.2522 42.7872 28.7259 43.0959 29.2152L43.1131 29.243L43.1202 29.2551C43.3191 29.5767 43.3821 29.9642 43.2953 30.3323C43.2086 30.7004 42.9791 31.0189 42.6575 31.2179C42.3358 31.4168 41.9483 31.4798 41.5803 31.393C41.2122 31.3062 40.8936 31.0768 40.6947 30.7552L40.6926 30.7516L40.6819 30.7338C40.5746 30.5648 40.4641 30.3979 40.3503 30.2333C40.684 31.8945 41.3413 34.1731 41.685 35.3252C41.7137 35.4188 41.7226 35.5173 41.7112 35.6145C41.6999 35.7117 41.6685 35.8054 41.619 35.8899C41.5696 35.9743 41.5032 36.0476 41.4239 36.105C41.3447 36.1624 41.2544 36.2028 41.1588 36.2236C38.6371 36.749 36.8718 36.7355 34.1333 36.2136C34.035 36.1942 33.9419 36.1544 33.8601 36.0966C33.7783 36.0389 33.7096 35.9645 33.6584 35.8784C33.6073 35.7923 33.5749 35.6963 33.5634 35.5968C33.5518 35.4973 33.5614 35.3965 33.5914 35.301C33.9515 34.1431 34.621 31.8888 34.9382 30.1905C34.8145 30.3692 34.6942 30.5504 34.5775 30.7338L34.5668 30.7516L34.5646 30.7544ZM34.4926 37.4328V38.3938C34.4929 38.653 34.5873 38.9032 34.7582 39.098C34.9291 39.2928 35.1649 39.419 35.4218 39.4529C35.6787 39.4869 35.9392 39.4265 36.1549 39.2828C36.3706 39.1391 36.5268 38.922 36.5944 38.6719L36.8761 37.6281C36.079 37.5998 35.2837 37.5346 34.4926 37.4328ZM38.5244 37.6253L38.8075 38.6726C38.8751 38.9228 39.0314 39.14 39.2471 39.2836C39.4629 39.4273 39.7235 39.4877 39.9805 39.4536C40.2374 39.4195 40.4733 39.2933 40.6441 39.0983C40.815 38.9034 40.9092 38.653 40.9093 38.3938V37.4228C40.1177 37.5254 39.322 37.5927 38.5244 37.6245V37.6253Z" fill="url(#paint3_linear_1601_10287)"/>
<defs>
<linearGradient id="paint0_linear_1601_10287" x1="26.0803" y1="24.8864" x2="19.7414" y2="23.0547" gradientUnits="userSpaceOnUse">
<stop stop-color="#246BFD"/>
<stop offset="1" stop-color="#5089FF"/>
</linearGradient>
<linearGradient id="paint1_linear_1601_10287" x1="29.1609" y1="39.4659" x2="15.1974" y2="35.9947" gradientUnits="userSpaceOnUse">
<stop stop-color="#246BFD"/>
<stop offset="1" stop-color="#5089FF"/>
</linearGradient>
<linearGradient id="paint2_linear_1601_10287" x1="40.3393" y1="24.8237" x2="34.0046" y2="22.987" gradientUnits="userSpaceOnUse">
<stop stop-color="#246BFD"/>
<stop offset="1" stop-color="#5089FF"/>
</linearGradient>
<linearGradient id="paint3_linear_1601_10287" x1="43.3334" y1="39.4629" x2="29.4589" y2="36.0786" gradientUnits="userSpaceOnUse">
<stop stop-color="#246BFD"/>
<stop offset="1" stop-color="#5089FF"/>
</linearGradient>
</defs>
</svg>
