<svg width="61" height="60" viewBox="0 0 61 60" fill="none" xmlns="http://www.w3.org/2000/svg">
<rect x="0.5" width="60" height="60" rx="30" fill="#246BFD" fill-opacity="0.08"/>
<path d="M22.3333 41.6666C21.6917 41.6666 21.1422 41.4383 20.6848 40.9818C20.2283 40.5244 20 39.9749 20 39.3333V22.9999C20 22.3583 20.2283 21.8091 20.6848 21.3526C21.1422 20.8953 21.6917 20.6666 22.3333 20.6666H22.5C23.0523 20.6666 23.5 20.2189 23.5 19.6666V19.3333C23.5 18.781 23.9477 18.3333 24.5 18.3333H24.8333C25.3856 18.3333 25.8333 18.781 25.8333 19.3333V19.6666C25.8333 20.2189 26.281 20.6666 26.8333 20.6666H34.1667C34.719 20.6666 35.1667 20.2189 35.1667 19.6666V19.3333C35.1667 18.781 35.6144 18.3333 36.1667 18.3333H36.5C37.0523 18.3333 37.5 18.781 37.5 19.3333V19.6666C37.5 20.2189 37.9477 20.6666 38.5 20.6666H38.6667C39.3083 20.6666 39.8578 20.8953 40.3152 21.3526C40.7717 21.8091 41 22.3583 41 22.9999V39.3333C41 39.9749 40.7717 40.5244 40.3152 40.9818C39.8578 41.4383 39.3083 41.6666 38.6667 41.6666H22.3333ZM27 38.4583C27 38.9415 27.3918 39.3333 27.875 39.3333C28.3582 39.3333 28.75 38.9415 28.75 38.4583V36.9124C28.75 36.8107 28.6983 36.6573 28.5949 36.4522C28.5632 36.3893 28.5228 36.3312 28.4771 36.2775L26.2125 33.6166C26.0764 33.461 25.9792 33.2958 25.9208 33.1208C25.8417 32.8833 26.0935 32.7118 26.3329 32.7849C26.3847 32.8007 26.4367 32.8154 26.489 32.8291C26.713 32.8874 26.9417 32.9166 27.175 32.9166C27.5639 32.9166 27.9477 32.8338 28.3265 32.6681C28.7061 32.5032 29.0417 32.2652 29.3333 31.9541C29.4889 31.7985 29.6689 31.6819 29.8735 31.6041C30.0773 31.5263 30.2861 31.4874 30.5 31.4874C30.7333 31.4874 30.9519 31.5263 31.1557 31.6041C31.3602 31.6819 31.5306 31.7985 31.6667 31.9541C31.9583 32.2652 32.2986 32.5032 32.6875 32.6681C33.0764 32.8338 33.4653 32.9166 33.8542 32.9166C34.0875 32.9166 34.3111 32.8874 34.525 32.8291C34.5726 32.8161 34.6203 32.8021 34.6679 32.7872C34.9068 32.7124 35.1583 32.8833 35.0792 33.1208C35.0208 33.2958 34.9236 33.461 34.7875 33.6166L32.5077 36.2954C32.4721 36.3372 32.4396 36.3817 32.4126 36.4296C32.3724 36.501 32.3376 36.5698 32.3083 36.6359C32.2694 36.723 32.25 36.8152 32.25 36.9124V38.4583C32.25 38.9415 32.6418 39.3333 33.125 39.3333C33.6082 39.3333 34 38.9415 34 38.4583V37.6032C34 37.3645 34.0854 37.1336 34.2407 36.9524L36.1 34.7833C36.3139 34.5694 36.5037 34.2777 36.6693 33.9083C36.8342 33.5388 36.9167 33.111 36.9167 32.6249C36.9167 32.3721 36.8875 32.124 36.8292 31.8806C36.807 31.7886 36.7807 31.6972 36.7502 31.6065C36.654 31.3205 36.6449 31.0088 36.7407 30.7226C36.7672 30.6436 36.792 30.563 36.8152 30.4806C36.8828 30.2379 36.9167 29.9902 36.9167 29.7374C36.9167 29.3485 36.8533 28.974 36.7265 28.6139C36.6005 28.2546 36.4014 27.9194 36.1292 27.6083L34.2376 25.3799C34.0842 25.1991 34 24.9698 34 24.7327V23.8749C34 23.3917 33.6082 22.9999 33.125 22.9999C32.6418 22.9999 32.25 23.3917 32.25 23.8749V25.4208C32.25 25.518 32.2648 25.6152 32.2943 25.7124C32.3231 25.8096 32.3764 25.8971 32.4542 25.9749L34.7875 28.7458C34.9042 28.9013 34.9967 29.0615 35.0652 29.2264C35.1328 29.3921 35.1667 29.5624 35.1667 29.7374C35.1667 30.1069 35.0453 30.4328 34.8027 30.7151C34.5592 30.9966 34.2431 31.1374 33.8542 31.1374C33.6986 31.1374 33.5384 31.1083 33.3735 31.0499C33.2078 30.9916 33.0569 30.8944 32.9208 30.7583C32.5903 30.4277 32.2162 30.1749 31.7985 29.9999C31.3801 29.8249 30.9472 29.7374 30.5 29.7374C30.0528 29.7374 29.6203 29.8249 29.2027 29.9999C28.7842 30.1749 28.4097 30.4277 28.0792 30.7583C27.9625 30.8944 27.8264 30.9916 27.6708 31.0499C27.5153 31.1083 27.35 31.1374 27.175 31.1374C26.7861 31.1374 26.4653 30.9966 26.2125 30.7151C25.9597 30.4328 25.8333 30.0971 25.8333 29.7083C25.8333 29.5333 25.8625 29.3629 25.9208 29.1973C25.9792 29.0324 26.0764 28.8721 26.2125 28.7166L28.4923 26.0378C28.5279 25.9959 28.5604 25.9514 28.5874 25.9036C28.6276 25.8322 28.6624 25.7634 28.6917 25.6973C28.7306 25.6101 28.75 25.518 28.75 25.4208V23.8749C28.75 23.3917 28.3582 22.9999 27.875 22.9999C27.3918 22.9999 27 23.3917 27 23.8749V24.73C27 24.9687 26.9146 25.1995 26.7593 25.3808L24.9 27.5499C24.6861 27.7638 24.4967 28.0555 24.3318 28.4249C24.1662 28.7944 24.0833 29.2221 24.0833 29.7083C24.0833 29.9805 24.1125 30.2379 24.1708 30.4806C24.1904 30.5622 24.2121 30.6422 24.2361 30.7205C24.3243 31.0091 24.3152 31.3202 24.2254 31.6084C24.1974 31.6984 24.1741 31.7892 24.1557 31.8806C24.1074 32.124 24.0833 32.3721 24.0833 32.6249C24.0833 33.111 24.1662 33.5388 24.3318 33.9083C24.4967 34.2777 24.6861 34.5694 24.9 34.7833L26.7593 36.9524C26.9146 37.1336 27 37.3645 27 37.6032V38.4583Z" fill="url(#paint0_linear_1601_8984)"/>
<defs>
<linearGradient id="paint0_linear_1601_8984" x1="41" y1="41.6666" x2="15.6382" y2="35.0485" gradientUnits="userSpaceOnUse">
<stop stop-color="#246BFD"/>
<stop offset="1" stop-color="#5089FF"/>
</linearGradient>
</defs>
</svg>
