<svg width="61" height="60" viewBox="0 0 61 60" fill="none" xmlns="http://www.w3.org/2000/svg">
<rect x="0.5" width="60" height="60" rx="30" fill="#246BFD" fill-opacity="0.08"/>
<path fill-rule="evenodd" clip-rule="evenodd" d="M36.5431 21.1452C36.5431 19.5935 37.8031 18.3335 39.3548 18.3335C40.9065 18.3335 42.1665 19.5935 42.1665 21.1452C42.1665 22.6968 40.9065 23.9568 39.3548 23.9568C37.8031 23.9568 36.5431 22.6968 36.5431 21.1452ZM32.0513 33.2193L35.423 28.8688L35.3763 28.8922C35.563 28.6355 35.598 28.3088 35.4697 28.0172C35.3425 27.7255 35.0613 27.5272 34.7592 27.5038C34.443 27.4688 34.1292 27.6088 33.9413 27.8655L31.1192 31.5172L27.8863 28.9738C27.688 28.8222 27.4547 28.7627 27.2213 28.7872C26.9892 28.8222 26.7792 28.9493 26.638 29.136L23.1858 33.6288L23.1147 33.7338C22.9163 34.106 23.0097 34.5843 23.3597 34.8422C23.523 34.9472 23.698 35.0172 23.8963 35.0172C24.1658 35.0288 24.4213 34.8877 24.5847 34.6672L27.513 30.8977L30.838 33.3955L30.943 33.4643C31.3163 33.6627 31.783 33.5705 32.0513 33.2193ZM34.5247 20.4105C34.478 20.7022 34.4547 20.9938 34.4547 21.2855C34.4547 23.9105 36.578 26.0327 39.1913 26.0327C39.483 26.0327 39.763 25.9988 40.0547 25.9522V35.366C40.0547 39.3222 37.7213 41.6672 33.7547 41.6672H25.1342C21.1663 41.6672 18.833 39.3222 18.833 35.366V26.7338C18.833 22.7672 21.1663 20.4105 25.1342 20.4105H34.5247Z" fill="url(#paint0_linear_1938_3520)"/>
<defs>
<linearGradient id="paint0_linear_1938_3520" x1="42.1665" y1="41.6672" x2="14.4017" y2="33.6171" gradientUnits="userSpaceOnUse">
<stop stop-color="#246BFD"/>
<stop offset="1" stop-color="#5089FF"/>
</linearGradient>
</defs>
</svg>
