<svg width="132" height="131" viewBox="0 0 132 131" fill="none" xmlns="http://www.w3.org/2000/svg">
<path d="M57.2779 130.733C57.2779 130.733 67.4255 109.997 60.6348 96.885C57.3143 90.4732 51.3386 86.6901 45.6485 83.0879C39.7021 79.3234 34.0676 75.7563 32.1013 69.5929C32.1013 69.5929 25.3868 72.3373 28.5918 80.1133C31.7968 87.8893 38.0521 91.701 38.0521 91.701C10.6614 80.1345 3.63004 68.8132 6.92463 39.4039C-0.85099 57.3972 -1.31569 69.8978 5.17044 83.0102C11.6566 96.1226 19.6647 101.764 36.984 112.437C54.3033 123.11 57.2779 130.733 57.2779 130.733Z" fill="url(#paint0_linear_1387_3639)"/>
<path d="M74.7227 130.733C74.7227 130.733 64.5752 109.997 71.3658 96.885C74.6864 90.4732 80.6621 86.6901 86.3522 83.0879C92.2986 79.3234 97.9331 75.7563 99.8994 69.5929C99.8994 69.5929 106.614 72.3373 103.409 80.1133C100.204 87.8893 93.9485 91.701 93.9485 91.701C121.339 80.1345 128.371 68.8132 125.076 39.4039C132.852 57.3972 133.316 69.8978 126.83 83.0102C120.344 96.1226 112.336 101.764 95.0166 112.437C77.6973 123.11 74.7227 130.733 74.7227 130.733Z" fill="url(#paint1_linear_1387_3639)"/>
<path fill-rule="evenodd" clip-rule="evenodd" d="M81.8345 0.0673077C84.434 0.0673077 87.0295 0.433689 89.4972 1.26113C104.703 6.2011 110.183 22.8735 105.606 37.4464C103.01 44.8934 98.7667 51.69 93.2092 57.2433C85.2539 64.9415 76.5241 71.7751 67.1269 77.6619L66.0969 78.2835L65.0258 77.6207C55.5956 71.7751 46.8164 64.9415 38.787 57.2022C33.2665 51.6488 29.019 44.8934 26.3823 37.4464C21.727 22.8735 27.2063 6.2011 42.5772 1.17468C43.7719 0.76302 45.0037 0.474855 46.2396 0.314306L47.4343 0.0666504C48.6125 0.0666504 48.9686 0.0668654 49.2734 0.0670495C49.5015 0.0671873 49.7009 0.0673077 50.1946 0.0673077H50.6478C53.2432 0.145524 55.7563 0.598354 58.1911 1.4258H58.4342C58.5989 1.50402 58.7225 1.59046 58.8049 1.66868C59.7154 1.96096 60.5764 2.29029 61.4004 2.74312L62.9659 3.44295C63.3442 3.64455 63.7688 3.95259 64.1358 4.21881C64.3683 4.38749 64.5776 4.53938 64.7374 4.63678C64.8046 4.67641 64.873 4.71627 64.9419 4.75645C65.2951 4.96249 65.6631 5.17713 65.9733 5.41483C70.5504 1.9198 76.108 0.0261413 81.8345 0.0673077ZM68.3038 21.6145C67.6857 20.9968 66.8474 20.6499 65.9733 20.6499C65.0992 20.6499 64.2609 20.9968 63.6428 21.6145C63.0247 22.2321 62.6775 23.0697 62.6775 23.9432V33.8231H52.79C51.9159 33.8231 51.0776 34.1701 50.4595 34.7877C49.8414 35.4053 49.4942 36.243 49.4942 37.1164C49.4942 37.9899 49.8414 38.8275 50.4595 39.4452C51.0776 40.0628 51.9159 40.4097 52.79 40.4097H62.6775V50.2897C62.6775 51.1631 63.0247 52.0008 63.6428 52.6184C64.2609 53.236 65.0992 53.583 65.9733 53.583C66.8474 53.583 67.6857 53.236 68.3038 52.6184C68.9219 52.0008 69.2691 51.1631 69.2691 50.2897V40.4097H79.1565C80.0307 40.4097 80.869 40.0628 81.487 39.4452C82.1051 38.8275 82.4524 37.9899 82.4524 37.1164C82.4524 36.243 82.1051 35.4053 81.487 34.7877C80.869 34.1701 80.0307 33.8231 79.1565 33.8231H69.2691V23.9432C69.2691 23.0697 68.9219 22.2321 68.3038 21.6145Z" fill="url(#paint2_linear_1387_3639)"/>
<defs>
<linearGradient id="paint0_linear_1387_3639" x1="131.334" y1="130.733" x2="-24.1479" y2="85.6528" gradientUnits="userSpaceOnUse">
<stop stop-color="#246BFD"/>
<stop offset="1" stop-color="#5089FF"/>
</linearGradient>
<linearGradient id="paint1_linear_1387_3639" x1="131.334" y1="130.733" x2="-24.1479" y2="85.6528" gradientUnits="userSpaceOnUse">
<stop stop-color="#246BFD"/>
<stop offset="1" stop-color="#5089FF"/>
</linearGradient>
<linearGradient id="paint2_linear_1387_3639" x1="131.334" y1="130.733" x2="-24.1479" y2="85.6528" gradientUnits="userSpaceOnUse">
<stop stop-color="#246BFD"/>
<stop offset="1" stop-color="#5089FF"/>
</linearGradient>
</defs>
</svg>
