<svg width="61" height="60" viewBox="0 0 61 60" fill="none" xmlns="http://www.w3.org/2000/svg">
<rect x="0.5" width="60" height="60" rx="30" fill="#246BFD" fill-opacity="0.08"/>
<path fill-rule="evenodd" clip-rule="evenodd" d="M35.3517 25.6048C35.3517 28.3461 33.1663 30.5442 30.4409 30.5442C27.7154 30.5442 25.53 28.3461 25.53 25.6048C25.53 22.8625 27.7154 20.6665 30.4409 20.6665C33.1663 20.6665 35.3517 22.8625 35.3517 25.6048ZM30.4409 39.3332C26.4378 39.3332 23.0198 38.6985 23.0198 36.16C23.0198 33.6205 26.4159 32.9627 30.4409 32.9627C34.4439 32.9627 37.862 33.5974 37.862 36.1369C37.862 38.6754 34.4658 39.3332 30.4409 39.3332ZM37.4503 25.6939C37.4503 27.0914 37.0335 28.3932 36.3022 29.4754C36.227 29.5868 36.2939 29.7371 36.4265 29.7602C36.6093 29.7917 36.7984 29.8096 36.9906 29.8148C38.9075 29.8652 40.6281 28.6244 41.1034 26.7562C41.8074 23.9813 39.7401 21.49 37.1076 21.49C36.8214 21.49 36.5477 21.5205 36.2813 21.5752C36.2448 21.5836 36.2061 21.6004 36.1852 21.6329C36.1601 21.6729 36.1789 21.7265 36.204 21.7611C36.9948 22.8759 37.4503 24.2355 37.4503 25.6939ZM40.6249 31.7645C41.913 32.0177 42.7602 32.5347 43.1112 33.2859C43.4078 33.9027 43.4078 34.6182 43.1112 35.2339C42.5742 36.3992 40.8432 36.7732 40.1705 36.8699C40.0316 36.8909 39.9198 36.7701 39.9344 36.6303C40.2781 33.4015 37.5443 31.8706 36.8371 31.5186C36.8068 31.5029 36.8005 31.4787 36.8036 31.464C36.8057 31.4535 36.8183 31.4367 36.8412 31.4335C38.3716 31.4052 40.0169 31.6153 40.6249 31.7645ZM24.0103 29.8147C24.2025 29.8094 24.3905 29.7926 24.5744 29.7601C24.7071 29.7369 24.7739 29.5867 24.6987 29.4753C23.9675 28.3931 23.5506 27.0913 23.5506 25.6938C23.5506 24.2354 24.0061 22.8758 24.7969 21.761C24.822 21.7264 24.8397 21.6728 24.8157 21.6328C24.7948 21.6013 24.7551 21.5835 24.7196 21.5751C24.4522 21.5204 24.1785 21.4899 23.8922 21.4899C21.2598 21.4899 19.1924 23.9812 19.8976 26.7561C20.3729 28.6243 22.0934 29.8651 24.0103 29.8147ZM24.1968 31.4634C24.1999 31.4791 24.1936 31.5022 24.1644 31.5191C23.4561 31.871 20.7223 33.4019 21.066 36.6297C21.0806 36.7705 20.9699 36.8903 20.8309 36.8703C20.1582 36.7736 18.4272 36.3996 17.8903 35.2344C17.5926 34.6176 17.5926 33.9031 17.8903 33.2863C18.2413 32.5351 19.0874 32.0181 20.3755 31.7639C20.9845 31.6157 22.6288 31.4056 24.1602 31.4339C24.1832 31.4371 24.1947 31.4539 24.1968 31.4634Z" fill="url(#paint0_linear_1938_9556)"/>
<defs>
<linearGradient id="paint0_linear_1938_9556" x1="43.3337" y1="39.3332" x2="14.7657" y2="27.944" gradientUnits="userSpaceOnUse">
<stop stop-color="#246BFD"/>
<stop offset="1" stop-color="#5089FF"/>
</linearGradient>
</defs>
</svg>
