<svg width="61" height="60" viewBox="0 0 61 60" fill="none" xmlns="http://www.w3.org/2000/svg">
<rect x="0.5" width="60" height="60" rx="30" fill="#246BFD" fill-opacity="0.08"/>
<path opacity="0.4" d="M31.6387 19.6324L34.2363 24.8524C34.4276 25.2306 34.7929 25.4932 35.2141 25.5516L41.0487 26.4013C41.3895 26.4492 41.6987 26.6289 41.9076 26.9033C42.1141 27.1741 42.2028 27.5172 42.1526 27.8546C42.1118 28.1347 41.9799 28.3938 41.778 28.5923L37.5503 32.6905C37.2411 32.9765 37.101 33.4002 37.1757 33.8146L38.2166 39.5762C38.3275 40.2719 37.8665 40.9279 37.1757 41.0598C36.891 41.1053 36.5993 41.0574 36.3425 40.9267L31.1381 38.2152C30.7518 38.0202 30.2956 38.0202 29.9093 38.2152L24.7049 40.9267C24.0654 41.2664 23.2731 41.0353 22.9172 40.405C22.7853 40.154 22.7386 39.868 22.7818 39.589L23.8227 33.8263C23.8974 33.4131 23.7562 32.987 23.4481 32.701L19.2204 28.6051C18.7174 28.1195 18.7022 27.32 19.1865 26.8169C19.197 26.8064 19.2087 26.7947 19.2204 26.783C19.4211 26.5788 19.6848 26.4492 19.9695 26.4153L25.8041 25.5644C26.2242 25.5049 26.5894 25.2446 26.782 24.864L29.2862 19.6324C29.5091 19.1842 29.9712 18.9052 30.4729 18.9169H30.6293C31.0646 18.9694 31.4438 19.239 31.6387 19.6324" fill="url(#paint0_linear_1938_6922)"/>
<path d="M30.4904 38.0698C30.2644 38.0768 30.0442 38.1375 29.8462 38.2461L24.6672 40.9515C24.0335 41.2539 23.2752 41.0192 22.9199 40.4132C22.7883 40.1657 22.7405 39.882 22.7848 39.6041L23.8192 33.8535C23.8891 33.4355 23.7493 33.0105 23.4452 32.7163L19.2156 28.6214C18.7135 28.1298 18.7042 27.323 19.1958 26.8197C19.2028 26.8127 19.2086 26.8069 19.2156 26.8011C19.416 26.6026 19.6746 26.4718 19.953 26.4309L25.7924 25.5716C26.2153 25.5178 26.5822 25.254 26.7686 24.871L29.3069 19.5735C29.548 19.1461 30.0104 18.8916 30.4997 18.9184C30.4904 19.2652 30.4904 37.8339 30.4904 38.0698" fill="url(#paint1_linear_1938_6922)"/>
<defs>
<linearGradient id="paint0_linear_1938_6922" x1="42.1663" y1="41.0832" x2="14.6324" y2="32.6798" gradientUnits="userSpaceOnUse">
<stop stop-color="#246BFD"/>
<stop offset="1" stop-color="#5089FF"/>
</linearGradient>
<linearGradient id="paint1_linear_1938_6922" x1="30.4997" y1="41.0832" x2="15.7928" y2="38.8389" gradientUnits="userSpaceOnUse">
<stop stop-color="#246BFD"/>
<stop offset="1" stop-color="#5089FF"/>
</linearGradient>
</defs>
</svg>
