<svg width="56" height="56" viewBox="0 0 56 56" fill="none" xmlns="http://www.w3.org/2000/svg">
<rect width="56" height="56" rx="28" fill="#246BFD" fill-opacity="0.08"/>
<path fill-rule="evenodd" clip-rule="evenodd" d="M22.113 20.5H27.9051C30.3271 20.5 32.0181 22.169 32.0181 24.5609V31.4391C32.0181 33.831 30.3271 35.5 27.9051 35.5H22.113C19.691 35.5 18 33.831 18 31.4391V24.5609C18 22.169 19.691 20.5 22.113 20.5ZM35.958 22.879C36.397 22.6556 36.912 22.679 37.331 22.9429C37.75 23.2059 38 23.6627 38 24.1622V31.8384C38 32.3389 37.75 32.7947 37.331 33.0577C37.102 33.2008 36.846 33.2739 36.588 33.2739C36.373 33.2739 36.158 33.2231 35.957 33.1206L34.476 32.3734C33.928 32.0952 33.588 31.5369 33.588 30.9165V25.083C33.588 24.4617 33.928 23.9034 34.476 23.6272L35.958 22.879Z" fill="url(#paint0_linear_1879_4740)"/>
<defs>
<linearGradient id="paint0_linear_1879_4740" x1="38" y1="35.5" x2="15.5555" y2="26.8232" gradientUnits="userSpaceOnUse">
<stop stop-color="#246BFD"/>
<stop offset="1" stop-color="#5089FF"/>
</linearGradient>
</defs>
</svg>
